<?xml version="1.0" standalone="no"?>
<!DOCTYPE svg PUBLIC "-//W3C//DTD SVG 20010904//EN"
 "http://www.w3.org/TR/2001/REC-SVG-20010904/DTD/svg10.dtd">
<svg version="1.0" xmlns="http://www.w3.org/2000/svg"
 width="912.000000pt" height="912.000000pt" viewBox="0 0 912.000000 912.000000"
 preserveAspectRatio="xMidYMid meet">
<metadata>
Created by potrace 1.14, written by Peter Selinger 2001-2017
</metadata>
<g transform="translate(0.000000,912.000000) scale(0.100000,-0.100000)"
fill="#000000" stroke="none">
<path d="M4397 8974 c-1 -1 -56 -5 -122 -9 -66 -3 -136 -8 -155 -10 -127 -13
-207 -24 -290 -39 -14 -3 -43 -8 -65 -12 -85 -13 -97 -16 -255 -53 -47 -11
-110 -27 -140 -36 -30 -9 -62 -18 -70 -20 -80 -21 -273 -86 -315 -105 -11 -5
-67 -27 -124 -50 -57 -22 -121 -50 -142 -60 -21 -11 -45 -20 -53 -20 -8 0 -16
-3 -18 -7 -1 -5 -59 -37 -128 -72 -156 -79 -204 -105 -210 -111 -10 -10 -65
-41 -82 -47 -10 -3 -18 -9 -18 -14 0 -5 -5 -9 -10 -9 -6 0 -16 -5 -23 -10 -7
-6 -61 -43 -122 -82 -60 -40 -115 -77 -122 -83 -6 -5 -26 -21 -44 -35 -288
-217 -560 -473 -751 -708 -35 -42 -68 -81 -74 -87 -21 -19 -144 -185 -144
-194 0 -5 -4 -11 -8 -13 -5 -1 -36 -43 -68 -93 -32 -49 -62 -92 -65 -95 -3 -3
-17 -25 -31 -50 -14 -25 -49 -85 -78 -135 -69 -118 -177 -335 -229 -460 -23
-55 -46 -109 -51 -120 -8 -21 -21 -52 -26 -70 -2 -5 -26 -74 -53 -153 -27 -78
-49 -144 -49 -145 0 -1 -5 -22 -12 -47 -7 -25 -12 -47 -12 -50 0 -3 -4 -15 -9
-28 -5 -12 -11 -33 -13 -45 -10 -47 -15 -69 -20 -85 -6 -18 -14 -59 -22 -107
-3 -16 -11 -53 -18 -80 -7 -28 -12 -59 -10 -69 1 -11 -1 -27 -6 -36 -5 -10
-11 -44 -14 -76 -3 -32 -6 -59 -6 -59 -1 0 -3 -13 -5 -30 -2 -16 -6 -50 -9
-75 -28 -240 -29 -758 0 -965 3 -22 7 -60 10 -85 10 -94 12 -107 17 -126 3
-10 9 -44 12 -74 4 -30 9 -58 11 -61 2 -4 6 -24 10 -45 3 -22 12 -66 20 -99 8
-33 17 -71 20 -85 5 -23 14 -59 50 -188 19 -70 92 -291 104 -317 5 -11 19 -45
30 -75 11 -30 26 -66 32 -80 6 -14 17 -38 24 -55 26 -62 184 -382 214 -435 18
-30 68 -112 113 -183 45 -70 87 -135 92 -145 6 -9 12 -19 15 -22 3 -3 27 -34
52 -70 26 -36 53 -72 60 -79 7 -8 28 -36 48 -62 93 -123 272 -322 405 -449
132 -127 174 -163 326 -285 74 -59 142 -113 152 -121 9 -8 19 -14 22 -14 4 0
82 -55 112 -80 7 -6 17 -10 23 -10 5 0 10 -4 10 -10 0 -5 7 -10 15 -10 8 0 15
-3 15 -7 0 -5 10 -13 23 -19 12 -6 63 -36 114 -67 50 -32 96 -57 102 -57 6 0
11 -3 11 -7 0 -5 10 -13 23 -19 12 -6 94 -47 182 -91 155 -78 392 -178 525
-223 144 -48 348 -107 435 -125 11 -3 32 -7 47 -11 15 -3 30 -5 33 -5 2 0 19
-5 37 -10 18 -5 49 -12 68 -14 19 -3 46 -7 60 -10 14 -3 41 -8 60 -11 19 -3
45 -7 56 -9 24 -4 104 -14 169 -21 40 -4 80 -8 225 -19 160 -13 483 -8 685 10
107 10 152 15 170 19 11 3 47 8 80 12 33 3 63 8 68 11 6 4 28 7 117 18 14 2
25 4 25 5 0 1 7 3 15 5 8 2 27 6 43 9 77 17 83 18 157 37 25 6 52 12 60 14 8
2 15 4 15 5 0 2 18 6 55 14 14 3 66 19 115 36 50 17 90 30 90 30 0 -4 256 93
315 119 19 8 37 15 40 16 37 11 327 156 408 204 29 17 55 31 57 31 15 0 388
248 393 262 2 4 10 8 18 8 8 0 17 7 20 15 4 8 12 15 19 15 7 0 15 3 17 8 2 4
23 23 48 42 51 40 59 47 154 127 38 32 91 78 117 103 26 25 69 66 96 91 116
111 305 321 393 438 14 18 30 38 35 44 69 76 339 490 327 501 -3 3 -1 6 5 6
10 0 190 350 222 430 7 19 20 49 27 65 40 92 140 367 149 413 2 9 10 37 18 62
15 46 45 162 52 196 2 10 4 19 5 19 3 0 10 39 13 67 1 16 4 28 7 28 3 0 7 11
8 26 1 14 6 33 12 43 5 10 7 21 4 24 -4 3 -1 28 5 54 10 46 18 92 26 158 2 17
7 53 11 80 34 251 40 787 10 1015 -2 19 -7 58 -10 85 -3 28 -8 61 -11 75 -2
14 -6 45 -9 70 -3 25 -8 54 -10 65 -2 11 -6 36 -10 55 -7 38 -11 59 -27 130
-5 25 -12 58 -15 74 -3 15 -21 85 -41 155 -19 69 -36 131 -37 136 -2 6 -6 17
-9 25 -7 19 -40 122 -43 135 -10 40 -103 270 -156 385 -68 148 -170 341 -225
428 -18 29 -33 55 -33 57 0 10 -192 290 -201 293 -5 2 -9 8 -9 14 0 5 -17 31
-37 56 -21 26 -42 53 -48 60 -12 15 -15 19 -74 92 -46 57 -60 72 -158 179 -93
102 -182 190 -283 281 -52 47 -97 87 -100 90 -5 5 -98 82 -130 107 -8 7 -42
32 -75 57 -33 25 -65 49 -70 53 -53 42 -85 63 -94 63 -6 0 -11 4 -11 8 0 4
-15 16 -32 27 -18 10 -35 21 -38 25 -10 13 -310 187 -395 230 -50 25 -93 49
-96 53 -3 5 -8 8 -10 7 -2 -1 -39 14 -83 34 -73 34 -225 99 -236 102 -3 0 -18
6 -35 13 -51 22 -355 122 -383 127 -15 3 -34 7 -42 11 -8 3 -24 8 -35 10 -11
2 -31 8 -45 13 -14 6 -40 11 -58 13 -17 1 -32 5 -32 8 0 3 -6 6 -12 7 -13 1
-33 5 -93 17 -123 24 -245 45 -300 50 -22 2 -40 4 -40 5 0 1 -16 3 -35 5 -19
2 -57 6 -85 9 -114 14 -597 30 -608 20z m443 -408 c115 -8 217 -19 295 -31 17
-3 46 -7 65 -10 19 -2 46 -7 60 -10 14 -3 39 -7 55 -10 73 -11 103 -17 148
-30 26 -8 47 -12 47 -9 0 3 8 0 18 -5 9 -5 31 -11 47 -14 70 -12 379 -111 460
-147 11 -5 61 -26 110 -46 92 -37 307 -141 392 -190 141 -81 370 -226 417
-266 6 -4 59 -45 117 -91 59 -45 140 -112 180 -147 124 -109 345 -334 419
-427 8 -10 33 -41 56 -68 116 -142 277 -373 355 -510 18 -33 44 -78 56 -100
77 -135 236 -487 252 -557 1 -4 9 -25 18 -45 17 -40 91 -281 100 -323 8 -41 9
-44 16 -65 3 -11 8 -31 11 -45 2 -14 9 -44 15 -67 6 -23 11 -45 10 -50 -1 -4
0 -10 1 -13 6 -18 30 -142 36 -195 2 -16 6 -43 8 -60 3 -16 8 -59 11 -95 3
-36 8 -83 11 -105 3 -22 7 -105 9 -185 2 -80 5 -147 6 -150 1 -3 0 -9 -1 -15
-1 -5 -3 -68 -5 -140 -4 -129 -11 -228 -20 -295 -3 -19 -7 -59 -9 -88 -3 -28
-7 -55 -9 -60 -3 -4 -7 -29 -11 -57 -3 -27 -8 -61 -11 -75 -3 -14 -8 -36 -10
-50 -2 -14 -7 -36 -10 -50 -3 -14 -7 -34 -9 -45 -5 -21 -43 -176 -52 -210 -3
-11 -6 -24 -8 -30 -1 -5 -13 -44 -26 -85 -13 -41 -24 -79 -26 -85 -3 -17 -91
-246 -114 -300 -79 -185 -187 -397 -267 -523 -18 -29 -33 -57 -33 -62 0 -6 -4
-10 -10 -10 -5 0 -10 -7 -10 -15 0 -8 -4 -15 -8 -15 -5 0 -14 -11 -20 -25 -7
-14 -16 -31 -22 -38 -6 -7 -36 -49 -68 -94 -31 -45 -66 -92 -77 -105 -11 -13
-28 -34 -37 -48 -9 -14 -28 -38 -42 -55 -14 -16 -29 -34 -34 -40 -196 -240
-480 -503 -764 -708 -59 -42 -111 -77 -114 -77 -4 0 -15 -7 -25 -16 -23 -21
-209 -134 -220 -134 -5 0 -9 -5 -9 -11 0 -5 -4 -8 -9 -5 -5 4 -11 2 -13 -2 -6
-15 -330 -171 -468 -225 -36 -14 -78 -31 -95 -38 -16 -7 -34 -13 -40 -15 -5
-1 -43 -14 -82 -28 -40 -13 -73 -23 -73 -21 0 2 -17 -3 -37 -11 -20 -9 -45
-17 -55 -19 -10 -2 -53 -14 -96 -25 -84 -24 -107 -29 -137 -35 -11 -1 -52 -10
-91 -18 -38 -9 -92 -19 -120 -23 -27 -3 -58 -8 -69 -11 -11 -2 -33 -6 -50 -7
-16 -2 -55 -7 -85 -11 -119 -15 -331 -28 -475 -28 -204 0 -521 24 -638 49 -16
3 -38 7 -50 9 -25 3 -234 44 -257 51 -8 2 -42 11 -75 19 -33 9 -73 20 -90 25
-16 5 -56 16 -88 25 -71 20 -266 90 -327 117 -25 11 -49 21 -55 22 -33 7 -443
209 -455 224 -3 4 -16 13 -29 20 -13 8 -40 23 -59 34 -53 30 -244 157 -268
179 -11 11 -25 19 -31 19 -6 0 -13 3 -15 8 -1 4 -23 23 -48 42 -25 19 -47 37
-50 40 -3 3 -25 21 -50 40 -46 35 -67 54 -175 151 -114 104 -269 265 -351 366
-18 21 -44 51 -58 66 -14 15 -26 30 -26 33 0 3 -13 19 -30 37 -16 18 -30 36
-30 40 0 4 -9 17 -19 29 -11 11 -43 55 -72 97 -29 42 -55 78 -58 81 -3 3 -13
17 -21 31 -8 15 -46 78 -84 140 -38 63 -100 177 -138 254 -38 77 -73 147 -78
156 -11 20 -101 241 -105 254 -1 6 -5 17 -8 25 -20 52 -58 169 -81 250 -15 52
-30 102 -33 110 -4 8 -6 18 -5 22 1 3 -5 29 -14 58 -8 28 -17 63 -19 78 -2 15
-13 70 -24 122 -10 52 -22 118 -25 145 -3 28 -8 66 -11 85 -3 19 -7 53 -10 74
-26 192 -26 723 0 901 4 27 9 62 20 160 2 17 4 30 5 30 2 0 6 22 14 72 13 85
18 110 28 148 5 22 12 49 14 60 10 47 12 56 34 140 6 22 12 47 15 55 2 8 14
47 26 85 12 39 24 75 25 80 3 13 53 154 64 180 4 11 18 45 30 75 44 108 76
177 144 310 37 74 73 145 80 157 6 13 15 23 19 23 5 0 5 5 2 10 -3 6 -3 10 2
10 4 0 14 14 21 30 8 17 19 36 25 43 7 6 21 29 32 50 11 21 28 47 38 57 9 11
17 22 17 26 0 10 72 108 82 112 4 2 8 8 8 14 0 8 139 194 173 230 7 8 41 47
77 88 80 92 273 286 359 360 35 30 69 60 75 65 67 60 244 195 255 195 5 0 11
4 13 8 2 5 39 33 83 63 86 58 85 57 172 108 32 19 60 38 61 43 2 4 12 8 23 8
10 0 19 3 19 8 0 4 10 12 23 18 12 6 81 40 152 76 72 36 147 73 168 82 77 33
104 44 167 69 147 58 199 75 204 70 3 -4 6 0 6 7 0 7 2 11 5 8 3 -3 53 10 112
28 58 19 109 31 114 28 5 -3 9 -1 9 4 0 5 6 9 13 9 6 0 23 3 37 7 106 25 248
55 295 62 11 1 20 3 20 4 0 2 10 3 95 14 30 3 78 10 107 15 28 4 66 7 82 7 17
-1 31 1 31 4 0 3 48 7 108 8 59 2 108 5 109 6 5 4 337 -2 423 -8z"/>
<path d="M3763 5752 c-25 -4 -1229 -1201 -1243 -1236 -5 -14 -3 -33 5 -51 12
-29 1185 -1208 1221 -1228 10 -6 125 -10 275 -9 236 0 261 2 301 20 37 18 118
84 118 97 0 3 15 20 33 39 17 18 43 46 56 62 54 63 155 179 160 184 3 3 33 36
66 75 33 38 67 77 75 85 8 9 42 47 75 85 33 38 67 76 75 85 8 9 46 52 84 96
39 43 75 84 80 89 6 6 42 46 81 90 38 44 88 99 110 123 48 52 63 79 70 126 8
46 -4 66 -102 172 -45 49 -91 100 -103 114 -18 22 -109 125 -135 154 -5 6 -35
40 -65 76 -30 36 -62 72 -70 80 -13 13 -61 69 -145 168 -11 13 -33 39 -50 57
-16 18 -50 56 -75 85 -25 30 -49 58 -55 64 -5 6 -32 38 -60 71 -27 33 -60 70
-72 82 -13 12 -23 24 -23 27 0 12 -77 89 -100 100 -14 7 -54 14 -90 16 -104 4
-473 5 -497 2z m162 -407 c33 -37 65 -73 70 -79 6 -6 39 -45 75 -86 36 -41 79
-91 97 -110 17 -19 41 -46 53 -60 12 -14 45 -51 73 -84 29 -32 61 -68 72 -81
11 -13 46 -52 78 -88 32 -36 67 -76 78 -89 34 -39 123 -140 137 -154 18 -19
15 -29 -20 -66 -40 -42 -83 -90 -168 -188 -36 -41 -67 -77 -70 -80 -6 -6 -122
-138 -166 -189 -16 -19 -36 -41 -45 -50 -9 -9 -38 -41 -64 -71 -26 -30 -72
-82 -101 -115 -29 -33 -61 -69 -71 -81 -71 -81 -141 -161 -157 -177 -18 -19
-29 -8 -524 487 l-505 505 39 45 c21 24 45 45 52 45 6 1 12 5 12 9 0 9 140
152 149 152 3 1 20 19 36 40 17 21 36 39 43 40 6 0 12 3 12 8 0 9 98 112 108
112 4 1 21 18 37 39 17 21 42 47 57 57 16 11 28 24 28 29 1 6 19 24 40 40 21
17 39 33 40 36 0 6 152 159 158 159 2 0 11 9 20 20 10 12 53 58 97 103 l80 82
45 -45 c25 -25 72 -77 105 -115z"/>
<path d="M4961 5748 c-34 -12 -52 -34 -58 -71 -8 -49 13 -84 112 -191 17 -18
53 -58 80 -90 28 -32 59 -68 70 -81 23 -26 43 -48 187 -212 59 -67 115 -131
125 -142 10 -10 27 -30 38 -42 41 -48 160 -183 175 -199 8 -9 38 -42 65 -74
28 -33 68 -79 90 -104 22 -25 40 -46 40 -47 0 -3 -75 -92 -100 -119 -6 -6 -55
-63 -110 -126 -55 -63 -110 -126 -123 -140 -12 -14 -44 -49 -70 -77 -26 -29
-51 -59 -57 -66 -13 -15 -153 -174 -180 -203 -11 -12 -39 -43 -62 -70 -23 -27
-54 -63 -70 -80 -15 -17 -55 -62 -88 -99 -33 -38 -65 -73 -70 -79 -55 -57 -70
-116 -42 -159 32 -49 44 -51 318 -50 318 2 318 2 439 143 25 30 60 69 78 87
17 19 32 36 32 38 0 2 12 17 28 33 15 16 52 57 82 92 30 35 62 71 70 80 8 9
40 45 70 80 30 35 62 71 70 80 8 9 42 47 75 84 33 38 71 81 85 96 14 15 50 55
80 90 30 35 69 78 85 96 17 17 49 54 72 80 22 27 50 58 60 69 67 70 76 153 24
207 -9 9 -34 37 -56 63 -22 26 -53 62 -70 80 -16 18 -50 56 -75 85 -25 29 -61
69 -80 90 -19 21 -46 51 -59 67 -13 15 -47 55 -76 88 -28 33 -60 70 -71 83
-10 13 -32 38 -49 56 -16 18 -41 46 -54 62 -37 43 -211 245 -276 319 -14 17
-47 56 -73 88 -72 92 -65 90 -383 92 -152 1 -286 -2 -298 -7z"/>
</g>
</svg>
