<svg width="43" height="33" viewBox="0 0 43 33" fill="none" xmlns="http://www.w3.org/2000/svg">
<path fill-rule="evenodd" clip-rule="evenodd" d="M27.4647 12.7512V11.9578C27.4647 11.4875 27.471 11.0203 27.5156 10.5537C27.6196 9.95064 27.7824 9.36276 28.0001 8.79194C28.2565 8.23485 28.5647 7.70457 28.9246 7.20709C29.3191 6.72735 29.7588 6.28698 30.2379 5.89179C30.7391 5.52995 31.2737 5.2164 31.8357 4.95726C32.4133 4.73726 33.01 4.57342 33.618 4.46957C33.933 4.43805 34.2499 4.42228 34.5669 4.42228C35.133 4.42228 35.73 4.17906 36.1324 3.77663C36.5171 3.39189 36.8046 2.76396 36.778 2.21117C36.7515 1.64069 36.5658 1.04809 36.1324 0.645712C35.699 0.247705 35.1683 -0.00436601 34.5669 5.72815e-05C32.3204 0.00890225 30.0252 0.672244 28.1723 1.95472C27.2835 2.56942 26.4521 3.27257 25.7666 4.1172C25.3686 4.61249 24.9794 5.1166 24.6522 5.66503C24.3205 6.21781 24.0685 6.80595 23.8252 7.3986C23.2415 8.82699 23.0469 10.3748 23.0469 11.9093V15.4692V18.4542C23.0469 18.4588 23.0469 18.4634 23.0469 18.4679C23.0469 18.4791 23.0469 18.4903 23.0469 18.5015V24.1974V26.3953C23.0469 27.9165 23.5687 29.4113 24.692 30.4771C25.0723 30.8398 25.5145 31.1803 25.9966 31.4058C26.3106 31.5517 26.629 31.6976 26.9651 31.7949C27.3042 31.8937 27.6683 31.9341 28.0169 31.9727L28.0485 31.9762C28.2696 32.0028 28.4907 32.0028 28.7163 32.0028H30.9937H36.6277H36.9348C36.9493 32.0029 36.9638 32.0029 36.9783 32.0028H36.9904C37.0149 32.0028 37.0394 32.0023 37.064 32.0014C39.4154 31.9458 41.4778 30.3681 42.1645 28.1155C42.3846 27.3939 42.383 26.6497 42.3814 25.9072C42.3813 25.8444 42.3812 25.7815 42.3812 25.7186V19.7574C42.3812 19.5718 42.3817 19.3857 42.3822 19.1995C42.3831 18.8265 42.3841 18.4529 42.3812 18.0813C42.3767 17.1526 42.1424 16.2726 41.709 15.4545C41.4613 14.9901 41.1208 14.5479 40.7361 14.1853C40.3602 13.8315 39.9268 13.491 39.458 13.2699C38.6487 12.8852 37.8483 12.6641 36.9418 12.6641H36.3359H33.6781H28.535C28.1808 12.6641 27.8184 12.6885 27.4647 12.7512ZM5.68389 12.6641C5.3297 12.6641 4.96737 12.6885 4.6137 12.7512V11.9578C4.6137 11.4875 4.62 11.0203 4.66451 10.5537C4.76859 9.95065 4.93135 9.36276 5.14909 8.79194C5.40544 8.23485 5.71361 7.70457 6.0736 7.20708C6.46804 6.72735 6.90775 6.28698 7.38684 5.89179C7.88808 5.52995 8.42271 5.2164 8.98463 4.95726C9.56227 4.73725 10.1589 4.57342 10.767 4.46957C11.0819 4.43805 11.3989 4.42228 11.7159 4.42228C12.2819 4.42228 12.879 4.17906 13.2813 3.77663C13.6661 3.39189 13.9535 2.76396 13.927 2.21117C13.9005 1.64069 13.7147 1.04809 13.2813 0.645712C12.848 0.247705 12.3173 -0.00436601 11.7159 5.72815e-05C9.46938 0.00890225 7.1742 0.672244 5.32127 1.95472C4.43241 2.56942 3.60104 3.27257 2.91555 4.1172C2.51754 4.61249 2.12838 5.1166 1.80115 5.66503C1.46948 6.21781 1.21741 6.80595 0.974151 7.3986C0.381567 8.82699 0.191406 10.3748 0.191406 11.9093V15.4692V18.4542L0.191454 18.4679L0.191406 18.5015V24.1974V26.3953C0.191406 27.9165 0.713234 29.4113 1.83652 30.4771C2.21683 30.8398 2.65907 31.1803 3.1411 31.4058C3.45508 31.5517 3.77349 31.6976 4.10962 31.7949C4.4487 31.8937 4.81278 31.9341 5.16139 31.9727L5.19304 31.9762C5.41416 32.0028 5.63527 32.0028 5.86081 32.0028H8.13828H13.7723H14.0837C14.0982 32.0029 14.1127 32.0029 14.1272 32.0028H14.1349C14.1569 32.0028 14.1789 32.0024 14.2009 32.0017C16.5573 31.9512 18.6255 30.3719 19.3134 28.1155C19.5335 27.3939 19.5319 26.6497 19.5303 25.9073V25.9073L19.5301 25.7186V19.7574C19.5301 19.5723 19.5306 19.3867 19.531 19.201V19.2005V19.2V19.1995C19.532 18.8265 19.533 18.4529 19.5301 18.0813C19.5256 17.1526 19.2913 16.2726 18.8579 15.4545C18.6102 14.9901 18.2697 14.5479 17.885 14.1853C17.5091 13.8315 17.0757 13.491 16.6069 13.2699C15.7976 12.8852 14.9972 12.6641 14.0907 12.6641H13.4848H10.827H5.68389Z" fill="#4098F9"/>
</svg>
