<svg width="131" height="99" viewBox="0 0 131 99" fill="none" xmlns="http://www.w3.org/2000/svg">
<g opacity="0.1">
<mask id="path-1-inside-1_2_2283" fill="white">
<path fill-rule="evenodd" clip-rule="evenodd" d="M70.7028 57.1299C70.7027 57.1645 70.7027 57.1992 70.7027 57.2338V74.854V81.6531C70.7027 86.359 72.3169 90.983 75.7918 94.2801C76.9683 95.4018 78.3363 96.4552 79.8275 97.1528C80.7988 97.6042 81.7838 98.0557 82.8236 98.3567C83.8725 98.662 84.9988 98.787 86.0772 98.9067L86.1751 98.9175C86.8591 98.9996 87.5431 98.9996 88.2408 98.9996H95.2861H112.715H113.664C113.709 99.0001 113.754 99.0001 113.799 98.9996H113.836C113.912 98.9996 113.988 98.9982 114.064 98.9954C121.338 98.8234 127.718 93.9429 129.842 86.9745C130.523 84.7422 130.518 82.4401 130.514 80.1433C130.513 79.9487 130.513 79.7542 130.513 79.5598V61.1188C130.513 60.5447 130.514 59.9691 130.516 59.3931C130.519 58.2393 130.522 57.0836 130.513 55.9339C130.499 53.0611 129.774 50.3387 128.433 47.8079C127.667 46.3715 126.614 45.0035 125.424 43.8818C124.261 42.7874 122.92 41.734 121.47 41.0501C118.967 39.8599 116.491 39.1759 113.686 39.1759H111.812H103.59H87.68C86.5843 39.1759 85.4634 39.2514 84.3692 39.4453V36.9911C84.3692 35.5362 84.3887 34.091 84.5264 32.6475C84.8484 30.7821 85.3519 28.9634 86.0254 27.1977C86.8184 25.4743 87.7717 23.8339 88.8853 22.2949C90.1056 20.8109 91.4658 19.4486 92.9478 18.2261C94.4984 17.1067 96.1523 16.1368 97.8906 15.3351C99.6775 14.6546 101.523 14.1477 103.404 13.8265C104.378 13.729 105.359 13.6802 106.34 13.6802C108.091 13.6802 109.938 12.9278 111.182 11.6829C112.372 10.4927 113.262 8.55023 113.18 6.84019C113.098 5.07544 112.523 3.24225 111.182 1.99749C109.842 0.766268 108.2 -0.0135061 106.34 0.000177198C99.3901 0.0275388 92.2901 2.07957 86.5581 6.04685C83.8084 7.94841 81.2366 10.1236 79.1161 12.7364C77.8848 14.2686 76.681 15.8281 75.6687 17.5246C74.6427 19.2346 73.8629 21.054 73.1104 22.8873C71.3046 27.306 70.7027 32.0942 70.7027 36.8411V47.8535V57.0877C70.7027 57.1017 70.7027 57.1158 70.7028 57.1299ZM97.0646 15.6638C97.1192 15.6412 97.1739 15.6186 97.2286 15.5963L97.0646 15.6638ZM16.9908 39.1759C15.8952 39.1759 14.7743 39.2514 13.6802 39.4453V36.9911C13.6802 35.5362 13.6997 34.091 13.8374 32.6475C14.1594 30.782 14.6629 28.9634 15.3364 27.1976C16.1295 25.4742 17.0828 23.8339 18.1964 22.2949C19.4166 20.8108 20.7768 19.4486 22.2588 18.2261C23.8094 17.1067 25.4633 16.1368 27.2016 15.3351C28.9885 14.6546 30.8343 14.1477 32.7151 13.8265C33.6894 13.729 34.67 13.6802 35.6506 13.6802C37.4017 13.6802 39.2485 12.9278 40.4933 11.6829C41.6835 10.4927 42.5727 8.55023 42.4906 6.84019C42.4085 5.07544 41.834 3.24225 40.4933 1.99749C39.1526 0.766268 37.511 -0.0135061 35.6506 0.000177199C28.7011 0.0275388 21.6011 2.07957 15.8691 6.04685C13.1194 7.94841 10.5476 10.1236 8.42705 12.7364C7.19583 14.2686 5.99197 15.8281 4.9797 17.5246C3.95368 19.2346 3.1739 21.054 2.4214 22.8873C0.588256 27.306 0 32.0942 0 36.8411V47.8535V57.0877L0.000149144 57.13L0 57.2338V74.854V81.6531C0 86.359 1.61426 90.983 5.0891 94.2801C6.26559 95.4018 7.63364 96.4552 9.1248 97.1528C10.0961 97.6042 11.0811 98.0557 12.1209 98.3567C13.1698 98.662 14.2961 98.787 15.3745 98.9067L15.4724 98.9175C16.1564 98.9996 16.8404 98.9996 17.5381 98.9996H24.5834H42.012H42.9753C43.0201 99.0001 43.065 99.0001 43.1101 98.9996H43.1338C43.177 98.9996 43.2204 98.9992 43.2638 98.9982C43.2789 98.9979 43.2941 98.9975 43.3092 98.9971C43.3188 98.9968 43.3283 98.9965 43.3379 98.9962C50.6272 98.84 57.0253 93.9547 59.1532 86.9745C59.8342 84.7422 59.8293 82.4401 59.8244 80.1433V80.1432C59.824 79.9487 59.8236 79.7542 59.8236 79.5598V61.1188C59.8236 60.5457 59.8251 59.9712 59.8266 59.3961V59.3946V59.3931V59.3924V59.3918V59.3912C59.8296 58.2381 59.8327 57.083 59.8236 55.9339C59.8099 53.0611 59.0848 50.3387 57.7442 47.8079C56.9781 46.3715 55.9247 45.0035 54.7346 43.8818C53.5718 42.7874 52.2311 41.734 50.7809 41.0501C48.2774 39.8599 45.8014 39.1759 42.9969 39.1759H41.1228H32.901H16.9908ZM18.7146 21.6011L18.6209 21.7234C18.652 21.6825 18.6832 21.6418 18.7146 21.6011ZM26.3756 15.6638C26.4302 15.6412 26.4849 15.6186 26.5396 15.5963L26.3756 15.6638Z"/>
</mask>
<path d="M70.7028 57.1299L74.7028 57.1414L74.7029 57.1216L74.7027 57.1017L70.7028 57.1299ZM75.7918 94.2801L78.5521 91.3851L78.545 91.3783L75.7918 94.2801ZM79.8275 97.1528L78.1325 100.776L78.1415 100.78L79.8275 97.1528ZM82.8236 98.3567L83.9417 94.5161L83.9357 94.5144L82.8236 98.3567ZM86.0772 98.9067L86.5186 94.9311L86.5183 94.9311L86.0772 98.9067ZM86.1751 98.9175L86.6516 94.946L86.6341 94.9439L86.6165 94.942L86.1751 98.9175ZM113.664 98.9996L113.708 94.9999L113.686 94.9996H113.664V98.9996ZM113.799 98.9996V94.9996H113.777L113.755 94.9999L113.799 98.9996ZM114.064 98.9954L113.97 94.9965L113.942 94.9971L113.915 94.9981L114.064 98.9954ZM129.842 86.9745L126.016 85.8073L126.016 85.8081L129.842 86.9745ZM130.514 80.1433L126.514 80.1518V80.1519L130.514 80.1433ZM130.516 59.3931L134.516 59.4037V59.4036L130.516 59.3931ZM130.513 55.9339L126.513 55.9529L126.513 55.9656L130.513 55.9339ZM128.433 47.8079L131.968 45.9355L131.963 45.9256L128.433 47.8079ZM125.424 43.8818L128.167 40.9709L128.165 40.969L125.424 43.8818ZM121.47 41.0501L119.753 44.6626L119.764 44.6679L121.47 41.0501ZM84.3692 39.4453H80.3692V44.2165L85.0672 43.384L84.3692 39.4453ZM84.5264 32.6475L80.5847 31.9671L80.5589 32.1166L80.5445 32.2676L84.5264 32.6475ZM86.0254 27.1977L82.3917 25.5256L82.3358 25.6471L82.2881 25.7721L86.0254 27.1977ZM88.8853 22.2949L85.7956 19.7545L85.7172 19.8499L85.6448 19.95L88.8853 22.2949ZM92.9478 18.2261L90.6066 14.9829L90.502 15.0584L90.4025 15.1404L92.9478 18.2261ZM97.8906 15.3351L96.4669 11.5971L96.3393 11.6456L96.2154 11.7028L97.8906 15.3351ZM103.404 13.8265L103.006 9.84637L102.868 9.8602L102.731 9.88358L103.404 13.8265ZM111.182 11.6829L108.354 8.85445L108.354 8.85463L111.182 11.6829ZM113.18 6.84019L109.184 7.02602L109.184 7.03195L113.18 6.84019ZM111.182 1.99749L113.904 -0.933845L113.896 -0.941255L113.888 -0.948622L111.182 1.99749ZM106.34 0.000177198L106.355 4.00017L106.369 4.00007L106.34 0.000177198ZM86.5581 6.04685L88.8333 9.33678L88.8345 9.33589L86.5581 6.04685ZM79.1161 12.7364L76.0102 10.2158L76.0041 10.2233L75.998 10.2309L79.1161 12.7364ZM75.6687 17.5246L79.0987 19.5826L79.1037 19.5741L75.6687 17.5246ZM73.1104 22.8873L69.41 21.3685L69.4077 21.3741L73.1104 22.8873ZM97.0646 15.6638L95.5308 11.9696L98.5875 19.3625L97.0646 15.6638ZM97.2286 15.5963L98.7515 19.295L95.7165 11.8931L97.2286 15.5963ZM13.6802 39.4453H9.68022V44.2164L14.3782 43.3839L13.6802 39.4453ZM13.8374 32.6475L9.8957 31.9671L9.8699 32.1166L9.85549 32.2676L13.8374 32.6475ZM15.3364 27.1976L11.7027 25.5255L11.6468 25.647L11.5991 25.772L15.3364 27.1976ZM18.1964 22.2949L15.1067 19.7544L15.0282 19.8499L14.9558 19.95L18.1964 22.2949ZM22.2588 18.2261L19.9176 14.9829L19.813 15.0584L19.7135 15.1404L22.2588 18.2261ZM27.2016 15.3351L25.7779 11.5971L25.6503 11.6456L25.5264 11.7028L27.2016 15.3351ZM32.7151 13.8265L32.3167 9.84637L32.1786 9.8602L32.0417 9.88358L32.7151 13.8265ZM40.4933 11.6829L37.6649 8.85446L37.6647 8.85462L40.4933 11.6829ZM42.4906 6.84019L38.4949 7.02602L38.4952 7.03195L42.4906 6.84019ZM40.4933 1.99749L43.2149 -0.933841L43.207 -0.941255L43.1989 -0.948626L40.4933 1.99749ZM35.6506 0.000177199L35.6664 4.00017L35.68 4.00007L35.6506 0.000177199ZM15.8691 6.04685L18.1442 9.33678L18.1455 9.33589L15.8691 6.04685ZM8.42705 12.7364L5.3212 10.2158L5.31509 10.2233L5.30902 10.2309L8.42705 12.7364ZM4.9797 17.5246L8.40967 19.5826L8.41471 19.5741L4.9797 17.5246ZM2.4214 22.8873L6.11607 24.4201L6.11896 24.4132L6.12182 24.4062L2.4214 22.8873ZM0 57.0877H-4.00002L-3.99998 57.1017L0 57.0877ZM0.000149144 57.13L4.00014 57.1358L4.00016 57.1258L4.00012 57.1159L0.000149144 57.13ZM0 57.2338L-4 57.228V57.2338H0ZM5.0891 94.2801L7.84942 91.3851L7.8423 91.3783L5.0891 94.2801ZM9.1248 97.1528L7.42982 100.776L7.43882 100.78L9.1248 97.1528ZM12.1209 98.3567L13.239 94.5161L13.233 94.5144L12.1209 98.3567ZM15.3745 98.9067L15.816 94.9311L15.8156 94.9311L15.3745 98.9067ZM15.4724 98.9175L15.949 94.946L15.9314 94.9439L15.9139 94.942L15.4724 98.9175ZM42.9753 98.9996L43.0188 94.9999L42.9971 94.9996H42.9753V98.9996ZM43.1101 98.9996V94.9996H43.088L43.066 94.9999L43.1101 98.9996ZM43.2638 98.9982L43.3496 102.997L43.3504 102.997L43.2638 98.9982ZM43.3092 98.9971L43.1944 94.9987L43.1925 94.9988L43.3092 98.9971ZM43.3379 98.9962L43.2522 94.9971L43.2281 94.9976L43.204 94.9984L43.3379 98.9962ZM59.1532 86.9745L55.3273 85.8073L55.3271 85.8081L59.1532 86.9745ZM59.8244 80.1433H55.8244L55.8244 80.1519L59.8244 80.1433ZM59.8244 80.1432H63.8244L63.8244 80.1347L59.8244 80.1432ZM59.8266 59.3961L63.8266 59.4067V59.3961H59.8266ZM59.8266 59.3912L55.8266 59.3806V59.3912H59.8266ZM59.8236 55.9339L55.8236 55.9529L55.8237 55.9656L59.8236 55.9339ZM57.7442 47.8079L61.2788 45.9355L61.2736 45.9256L57.7442 47.8079ZM54.7346 43.8818L57.4781 40.9709L57.476 40.969L54.7346 43.8818ZM50.7809 41.0501L49.0635 44.6626L49.0746 44.6679L50.7809 41.0501ZM18.7146 21.6011L21.8892 24.0346L15.5466 19.159L18.7146 21.6011ZM18.6209 21.7234L15.4398 19.2984L21.7954 24.1569L18.6209 21.7234ZM26.3756 15.6638L24.8417 11.9696L27.8985 19.3626L26.3756 15.6638ZM26.5396 15.5963L28.0625 19.295L25.0276 11.8931L26.5396 15.5963ZM66.7029 57.1184C66.7027 57.1572 66.7027 57.1956 66.7027 57.2338H74.7027C74.7027 57.2027 74.7027 57.1719 74.7028 57.1414L66.7029 57.1184ZM66.7027 57.2338V74.854H74.7027V57.2338H66.7027ZM66.7027 74.854V81.6531H74.7027V74.854H66.7027ZM66.7027 81.6531C66.7027 87.2436 68.6256 92.9946 73.0386 97.1818L78.545 91.3783C76.0083 88.9715 74.7027 85.4744 74.7027 81.6531H66.7027ZM73.0315 97.175C74.3991 98.479 76.1209 99.8348 78.1325 100.776L81.5225 93.5297C80.5518 93.0756 79.5375 92.3247 78.5521 91.3851L73.0315 97.175ZM78.1415 100.78C79.0854 101.219 80.3345 101.8 81.7115 102.199L83.9357 94.5144C83.233 94.311 82.5121 93.9896 81.5135 93.5255L78.1415 100.78ZM81.7054 102.197C83.1444 102.616 84.622 102.77 85.636 102.882L86.5183 94.9311C85.3756 94.8043 84.6006 94.708 83.9417 94.5161L81.7054 102.197ZM85.6358 102.882L85.7337 102.893L86.6165 94.942L86.5186 94.9311L85.6358 102.882ZM85.6985 102.889C86.6596 103.004 87.5833 103 88.2408 103V94.9996C87.503 94.9996 87.0587 94.9949 86.6516 94.946L85.6985 102.889ZM88.2408 103H95.2861V94.9996H88.2408V103ZM95.2861 103H112.715V94.9996H95.2861V103ZM112.715 103H113.664V94.9996H112.715V103ZM113.621 102.999C113.694 103 113.769 103 113.843 102.999L113.755 94.9999C113.74 95 113.724 95 113.708 94.9999L113.621 102.999ZM113.799 103H113.836V94.9996H113.799V103ZM113.836 103C113.963 103 114.088 102.997 114.213 102.993L113.915 94.9981C113.888 94.9991 113.862 94.9996 113.836 94.9996V103ZM114.159 102.994C123.173 102.781 131.046 96.7444 133.669 88.1409L126.016 85.8081C124.39 91.1413 119.504 94.8657 113.97 94.9965L114.159 102.994ZM133.668 88.1417C134.553 85.2405 134.518 82.3316 134.514 80.1347L126.514 80.1519C126.519 82.5486 126.493 84.2439 126.016 85.8073L133.668 88.1417ZM134.514 80.1348C134.513 79.9396 134.513 79.7493 134.513 79.5598H126.513C126.513 79.7591 126.513 79.9579 126.514 80.1518L134.514 80.1348ZM134.513 79.5598V61.1188H126.513V79.5598H134.513ZM134.513 61.1188C134.513 60.5509 134.514 59.9805 134.516 59.4037L126.516 59.3825C126.514 59.9578 126.513 60.5386 126.513 61.1188H134.513ZM134.516 59.4036C134.519 58.2535 134.522 57.0765 134.513 55.9021L126.513 55.9656C126.522 57.0906 126.519 58.2252 126.516 59.3825L134.516 59.4036ZM134.513 55.9148C134.496 52.3578 133.593 49.0029 131.968 45.9355L124.899 49.6804C125.955 51.6746 126.502 53.7645 126.513 55.9529L134.513 55.9148ZM131.963 45.9256C130.987 44.096 129.665 42.3827 128.167 40.9709L122.68 46.7927C123.563 47.6243 124.348 48.647 124.904 49.6903L131.963 45.9256ZM128.165 40.969C126.85 39.7312 125.159 38.3674 123.176 37.4323L119.764 44.6679C120.681 45.1007 121.672 45.8436 122.682 46.7946L128.165 40.969ZM123.188 37.4375C120.264 36.0476 117.201 35.1759 113.686 35.1759V43.1759C115.78 43.1759 117.669 43.6722 119.753 44.6626L123.188 37.4375ZM113.686 35.1759H111.812V43.1759H113.686V35.1759ZM111.812 35.1759H103.59V43.1759H111.812V35.1759ZM103.59 35.1759H87.68V43.1759H103.59V35.1759ZM87.68 35.1759C86.4069 35.1759 85.0455 35.2632 83.6712 35.5067L85.0672 43.384C85.8812 43.2397 86.7617 43.1759 87.68 43.1759V35.1759ZM88.3692 39.4453V36.9911H80.3692V39.4453H88.3692ZM88.3692 36.9911C88.3692 35.5558 88.3898 34.2702 88.5083 33.0273L80.5445 32.2676C80.3877 33.9118 80.3692 35.5167 80.3692 36.9911H88.3692ZM88.4681 33.3278C88.7451 31.723 89.179 30.1537 89.7628 28.6232L82.2881 25.7721C81.5248 27.7732 80.9517 29.8411 80.5847 31.9671L88.4681 33.3278ZM89.6592 28.8697C90.346 27.3772 91.1686 25.9628 92.1259 24.6398L85.6448 19.95C84.3749 21.705 83.2909 23.5714 82.3917 25.5256L89.6592 28.8697ZM91.975 24.8353C93.0317 23.5502 94.2096 22.3705 95.4931 21.3118L90.4025 15.1404C88.722 16.5267 87.1794 18.0715 85.7956 19.7545L91.975 24.8353ZM95.2891 21.4693C96.6344 20.4982 98.0656 19.6593 99.5657 18.9675L96.2154 11.7028C94.239 12.6143 92.3624 13.7153 90.6066 14.9829L95.2891 21.4693ZM99.3143 19.0732C100.862 18.4836 102.457 18.0462 104.078 17.7694L102.731 9.88358C100.59 10.2493 98.4927 10.8255 96.4669 11.5971L99.3143 19.0732ZM103.803 17.8066C104.644 17.7224 105.491 17.6802 106.34 17.6802V9.68019C105.227 9.68019 104.113 9.73554 103.006 9.84637L103.803 17.8066ZM106.34 17.6802C109.136 17.6802 112.005 16.5174 114.011 14.5111L108.354 8.85463C107.87 9.33814 107.046 9.68019 106.34 9.68019V17.6802ZM114.011 14.5113C115.855 12.6672 117.32 9.67242 117.175 6.64842L109.184 7.03195C109.203 7.42804 108.89 8.31818 108.354 8.85445L114.011 14.5113ZM117.175 6.65435C117.064 4.25815 116.271 1.26401 113.904 -0.933845L108.461 4.92883C108.775 5.22049 109.131 5.89273 109.184 7.02602L117.175 6.65435ZM113.888 -0.948622C111.965 -2.71484 109.384 -4.02232 106.31 -3.99971L106.369 4.00007C107.016 3.99531 107.719 4.24738 108.477 4.94361L113.888 -0.948622ZM106.324 -3.99979C98.6349 -3.96952 90.7324 -1.70694 84.2816 2.75782L88.8345 9.33589C93.8478 5.86607 100.145 4.0246 106.355 4.00015L106.324 -3.99979ZM84.2829 2.75693C81.3285 4.80011 78.4399 7.22196 76.0102 10.2158L82.2219 15.2571C84.0333 13.0252 86.2884 11.0967 88.8333 9.33678L84.2829 2.75693ZM75.998 10.2309C74.7491 11.785 73.397 13.5254 72.2337 15.475L79.1037 19.5741C79.965 18.1307 81.0205 16.7522 82.2341 15.242L75.998 10.2309ZM72.2388 15.4666C71.0432 17.4592 70.1663 19.5259 69.41 21.3685L76.8108 24.4062C77.5595 22.5821 78.2422 21.01 79.0987 19.5826L72.2388 15.4666ZM69.4077 21.3741C67.3404 26.4325 66.7027 31.7809 66.7027 36.8411H74.7027C74.7027 32.4075 75.2688 28.1795 76.8131 24.4006L69.4077 21.3741ZM66.7027 36.8411V47.8535H74.7027V36.8411H66.7027ZM66.7027 47.8535V57.0877H74.7027V47.8535H66.7027ZM66.7027 57.0877C66.7027 57.1104 66.7028 57.1339 66.7029 57.1581L74.7027 57.1017C74.7027 57.0977 74.7027 57.0931 74.7027 57.0877H66.7027ZM98.5984 19.3581C98.6458 19.3384 98.6932 19.3188 98.7407 19.2995L95.7165 11.8931C95.6545 11.9184 95.5926 11.9439 95.5308 11.9696L98.5984 19.3581ZM95.7056 11.8976L95.5416 11.9651L98.5875 19.3625L98.7515 19.295L95.7056 11.8976ZM14.3782 43.3839C15.1921 43.2397 16.0725 43.1759 16.9908 43.1759V35.1759C15.7178 35.1759 14.3565 35.2631 12.9823 35.5067L14.3782 43.3839ZM9.68022 36.9911V39.4453H17.6802V36.9911H9.68022ZM9.85549 32.2676C9.69865 33.9118 9.68022 35.5167 9.68022 36.9911H17.6802C17.6802 35.5558 17.7008 34.2702 17.8193 33.0273L9.85549 32.2676ZM11.5991 25.772C10.8358 27.7731 10.2626 29.8411 9.8957 31.9671L17.7791 33.3278C18.0561 31.723 18.49 30.1537 19.0738 28.6232L11.5991 25.772ZM14.9558 19.95C13.6859 21.7049 12.6019 23.5713 11.7027 25.5255L18.9702 28.8697C19.657 27.3772 20.4796 25.9628 21.437 24.6398L14.9558 19.95ZM19.7135 15.1404C18.033 16.5266 16.4905 18.0715 15.1067 19.7544L21.2861 24.8353C22.3427 23.5502 23.5206 22.3705 24.8041 21.3118L19.7135 15.1404ZM25.5264 11.7028C23.55 12.6143 21.6734 13.7153 19.9176 14.9829L24.6001 21.4693C25.9454 20.4982 27.3766 19.6593 28.8767 18.9675L25.5264 11.7028ZM32.0417 9.88358C29.9006 10.2493 27.8037 10.8255 25.7779 11.5971L28.6253 19.0732C30.1732 18.4836 31.7679 18.0462 33.3886 17.7694L32.0417 9.88358ZM35.6506 9.68019C34.5376 9.68019 33.424 9.73554 32.3167 9.84637L33.1135 17.8066C33.9548 17.7224 34.8024 17.6802 35.6506 17.6802V9.68019ZM37.6647 8.85462C37.1812 9.33815 36.3566 9.68019 35.6506 9.68019V17.6802C38.4468 17.6802 41.3158 16.5174 43.3219 14.5111L37.6647 8.85462ZM38.4952 7.03195C38.5142 7.42802 38.2012 8.31817 37.6649 8.85446L43.3217 14.5113C45.1658 12.6673 46.6312 9.67243 46.486 6.64842L38.4952 7.03195ZM37.7717 4.92882C38.0858 5.2205 38.4422 5.89275 38.4949 7.02602L46.4863 6.65435C46.3749 4.25813 45.5821 1.264 43.2149 -0.933841L37.7717 4.92882ZM35.68 4.00007C36.3268 3.99531 37.0296 4.24738 37.7877 4.94361L43.1989 -0.948626C41.2757 -2.71484 38.6952 -4.02232 35.6212 -3.99971L35.68 4.00007ZM18.1455 9.33589C23.1588 5.86607 29.4563 4.0246 35.6664 4.00015L35.6349 -3.99979C27.9459 -3.96952 20.0434 -1.70693 13.5926 2.75781L18.1455 9.33589ZM11.5329 15.2571C13.3442 13.0252 15.5994 11.0967 18.1442 9.33678L13.5939 2.75693C10.6394 4.80011 7.75093 7.22196 5.3212 10.2158L11.5329 15.2571ZM8.41471 19.5741C9.27596 18.1307 10.3315 16.7522 11.5451 15.242L5.30902 10.2309C4.06012 11.785 2.70797 13.5254 1.54469 15.475L8.41471 19.5741ZM6.12182 24.4062C6.87054 22.5821 7.55321 21.01 8.40966 19.5826L1.54975 15.4666C0.354154 17.4592 -0.522731 19.5259 -1.27902 21.3685L6.12182 24.4062ZM4 36.8411C4 32.3978 4.5551 28.1827 6.11607 24.4201L-1.27328 21.3546C-3.37859 26.4293 -4 31.7906 -4 36.8411H4ZM4 47.8535V36.8411H-4V47.8535H4ZM4 57.0877V47.8535H-4V57.0877H4ZM4.00012 57.1159L3.99998 57.0736L-3.99998 57.1017L-3.99983 57.1441L4.00012 57.1159ZM4 57.2395L4.00014 57.1358L-3.99985 57.1243L-4 57.228L4 57.2395ZM4 74.854V57.2338H-4V74.854H4ZM4 81.6531V74.854H-4V81.6531H4ZM7.8423 91.3783C5.30562 88.9715 4 85.4744 4 81.6531H-4C-4 87.2436 -2.0771 92.9946 2.33589 97.1818L7.8423 91.3783ZM10.8198 93.5297C9.84909 93.0756 8.8348 92.3247 7.84941 91.3851L2.32878 97.175C3.69637 98.479 5.4182 99.8348 7.42982 100.776L10.8198 93.5297ZM13.233 94.5144C12.5303 94.311 11.8095 93.9897 10.8108 93.5255L7.43882 100.78C8.38272 101.219 9.63186 101.8 11.0088 102.199L13.233 94.5144ZM15.8156 94.9311C14.6729 94.8043 13.8979 94.708 13.239 94.5161L11.0027 102.197C12.4417 102.616 13.9193 102.77 14.9334 102.882L15.8156 94.9311ZM15.9139 94.942L15.816 94.9311L14.9331 102.882L15.031 102.893L15.9139 94.942ZM17.5381 94.9996C16.8003 94.9996 16.356 94.9949 15.949 94.946L14.9959 102.889C15.9569 103.004 16.8806 103 17.5381 103V94.9996ZM24.5834 94.9996H17.5381V103H24.5834V94.9996ZM42.012 94.9996H24.5834V103H42.012V94.9996ZM42.9753 94.9996H42.012V103H42.9753V94.9996ZM43.066 94.9999C43.0507 95 43.035 95 43.0188 94.9999L42.9317 102.999C43.0052 103 43.0793 103 43.1541 102.999L43.066 94.9999ZM43.1338 94.9996H43.1101V103H43.1338V94.9996ZM43.1779 94.9992C43.1631 94.9995 43.1484 94.9996 43.1338 94.9996V103C43.2057 103 43.2777 102.999 43.3496 102.997L43.1779 94.9992ZM43.1925 94.9988C43.188 94.9989 43.1829 94.999 43.1771 94.9992L43.3504 102.997C43.3749 102.997 43.4001 102.996 43.4259 102.995L43.1925 94.9988ZM43.204 94.9984C43.2008 94.9985 43.1976 94.9986 43.1944 94.9987L43.424 102.995C43.4399 102.995 43.4559 102.994 43.4718 102.994L43.204 94.9984ZM55.3271 85.8081C53.6984 91.1504 48.7977 94.8783 43.2522 94.9971L43.4236 102.995C52.4566 102.802 60.3521 96.759 62.9794 88.1409L55.3271 85.8081ZM55.8244 80.1519C55.8295 82.5486 55.8043 84.2439 55.3273 85.8073L62.9791 88.1417C63.8642 85.2405 63.8291 82.3316 63.8244 80.1348L55.8244 80.1519ZM55.8244 80.1432V80.1433H63.8244V80.1432H55.8244ZM55.8236 79.5598C55.8236 79.7592 55.824 79.9579 55.8244 80.1518L63.8244 80.1347C63.824 79.9394 63.8236 79.7492 63.8236 79.5598H55.8236ZM55.8236 61.1188V79.5598H63.8236V61.1188H55.8236ZM55.8266 59.3856C55.8251 59.9597 55.8236 60.5396 55.8236 61.1188H63.8236C63.8236 60.5519 63.8251 59.9827 63.8266 59.4067L55.8266 59.3856ZM55.8266 59.3946V59.3961H63.8266V59.3946H55.8266ZM55.8266 59.3931V59.3946H63.8266V59.3931H55.8266ZM55.8266 59.3924V59.3931H63.8266V59.3924H55.8266ZM55.8266 59.3918V59.3924H63.8266V59.3918H55.8266ZM55.8266 59.3912V59.3918H63.8266V59.3912H55.8266ZM55.8237 55.9656C55.8326 57.09 55.8297 58.2239 55.8266 59.3806L63.8266 59.4017C63.8296 58.2522 63.8327 57.0759 63.8234 55.9021L55.8237 55.9656ZM54.2095 49.6804C55.2659 51.6746 55.8132 53.7645 55.8236 55.9529L63.8235 55.9148C63.8066 52.3578 62.9038 49.0029 61.2788 45.9355L54.2095 49.6804ZM51.9911 46.7927C52.8734 47.6243 53.6583 48.647 54.2148 49.6903L61.2736 45.9256C60.2978 44.096 58.976 42.3827 57.4781 40.9709L51.9911 46.7927ZM49.0746 44.6679C49.9922 45.1006 50.9827 45.8436 51.9931 46.7946L57.476 40.969C56.1609 39.7312 54.4699 38.3674 52.4872 37.4323L49.0746 44.6679ZM42.9969 43.1759C45.0905 43.1759 46.9801 43.6722 49.0635 44.6626L52.4983 37.4375C49.5747 36.0476 46.5123 35.1759 42.9969 35.1759V43.1759ZM41.1228 43.1759H42.9969V35.1759H41.1228V43.1759ZM32.901 43.1759H41.1228V35.1759H32.901V43.1759ZM16.9908 43.1759H32.901V35.1759H16.9908V43.1759ZM15.54 19.1676L15.4463 19.2898L21.7954 24.1569L21.8892 24.0346L15.54 19.1676ZM21.802 24.1484C21.8288 24.1132 21.8556 24.0781 21.8826 24.0432L15.5466 19.159C15.5108 19.2054 15.4752 19.2519 15.4398 19.2984L21.802 24.1484ZM27.9094 19.3581C27.9567 19.3384 28.0041 19.3189 28.0516 19.2995L25.0276 11.8931C24.9656 11.9184 24.9036 11.9439 24.8417 11.9696L27.9094 19.3581ZM25.0167 11.8976L24.8526 11.9651L27.8985 19.3626L28.0625 19.295L25.0167 11.8976Z" fill="black" mask="url(#path-1-inside-1_2_2283)"/>
</g>
</svg>
